<?xml version="1.0" standalone="no"?>
<!DOCTYPE svg PUBLIC "-//W3C//DTD SVG 1.1//EN" "http://www.w3.org/Graphics/SVG/1.1/DTD/svg11.dtd" >
<svg xmlns="http://www.w3.org/2000/svg" xmlns:xlink="http://www.w3.org/1999/xlink" version="1.1">
<metadata>
Created by FontForge 20160407 at Wed Sep 14 08:35:43 2016
 By Jimmy Warting
Copyright(c) jdlibianjian
</metadata>
<defs>
<font id="jdlibianjian" horiz-adv-x="1024" >
  <font-face 
    font-family="jdlibianjian"
    font-weight="400"
    font-stretch="normal"
    units-per-em="1024"
    panose-1="2 1 6 0 3 1 1 1 1 1"
    ascent="881"
    descent="-143"
    bbox="33.55 -185.6 991.023 697.769"
    underline-thickness="40"
    underline-position="-101"
    unicode-range="U+0020-FF1B"
  />
<missing-glyph 
 />
    <glyph glyph-name=".notdef" 
 />
    <glyph glyph-name=".notdef" 
 />
    <glyph glyph-name="space" unicode=" " horiz-adv-x="512" 
 />
    <glyph glyph-name="uni4E43" unicode="&#x4e43;" 
d="M405 550q3 -12 4 -37q1 -40 -16 -95q-15 -48 -43 -89q-31 -52 -87 -113q-79 -85 -180 -165q-15 -10 -11 -28q3 -15 28 -25q22 -6 45 12q81 67 147 152q57 70 107 160q45 79 58 131q10 37 17 56q9 22 0 45q154 10 217 3q28 3 32 -14q1 -30 -29 -83q-21 -37 -46 -57
q-31 -22 -41 -43q-10 -28 -6 -36q12 -13 61 7q94 25 151 3q22 -3 36 -12q13 -10 14 -22q1 -25 -27 -69q-36 -58 -91 -112q-52 -52 -80 -68q-31 -13 -48 -33q-7 -10 -4 -22q7 -13 26 -24q19 -9 40 3q43 30 82 75q73 82 87 112q13 25 42 59q45 55 45 88q-1 16 -10 30
q-13 10 -23 17q-25 12 -173 33q-12 1 -13 6q-1 10 2 17q15 25 32 58q10 19 40 50q30 30 29 49q0 13 -8 23q-10 10 -30 12q-43 4 -74 -2q-52 -9 -203 -5q-126 3 -181 9q-54 7 -79 -2q-25 -12 -33 -30q-7 -16 3 -26q13 -12 72 -6q64 4 119 8v0z" />
    <glyph glyph-name="uni4E4B" unicode="&#x4e4b;" 
d="M405 596q39 -28 60 -78q7 -22 22 -14q13 9 10 33q-12 55 -32 93q-21 42 -54 37q-37 -7 -42 -33q0 -13 36 -38zM187 178q37 -1 235 -67q160 -54 350 -140q55 -22 88 -14q54 15 90 53q22 24 -22 28q-46 1 -129 19q-82 13 -346 84q-114 30 -172 52q-6 3 -13 4q19 10 50 26
q160 82 317 151q75 33 91 36q43 9 44 34q-1 19 -24 37q-25 16 -45 7q-28 -13 -85 -10q-106 -7 -215 -12q-75 -3 -101 1q-63 4 -85 -7q-30 -18 -33 -34q-1 -18 18 -26q22 -7 57 1q36 7 323 28q28 1 28 -2q1 -7 -26 -18q-124 -69 -317 -162q-42 -19 -58 -33q-18 6 -39 9
q-39 7 -58 -26q-28 -55 -45 -79q-19 -24 -15 -45q6 -22 19 -31q16 -10 34 -2q15 7 20 45q4 27 19 62q4 10 15 18q10 9 30 13v0z" />
    <glyph glyph-name="uni4EBA" unicode="&#x4eba;" 
d="M415 327q12 -3 24 -10q31 -13 96 -63q82 -60 260 -214q34 -34 81 -21q64 19 78 30q31 25 -21 35q-69 15 -186 80q-139 81 -227 156q-55 43 -69 59q25 40 37 69q15 34 24 50q13 22 5 49q-7 22 -31 30q-16 6 -27 -5q-7 -7 -7 -24q1 -13 -1 -38q-4 -37 -28 -87
q-21 -43 -52 -79q-37 -43 -98 -94q-85 -72 -191 -132q-16 -10 -16 -28q1 -16 26 -30q22 -10 48 6q85 55 158 127q60 58 117 134v0z" />
    <glyph glyph-name="uni4EDE" unicode="&#x4ede;" 
d="M231 281q0 -138 -4 -267q-4 -40 7 -53q21 -22 35 -6q19 19 14 72q-1 46 -1 196q-1 130 5 246q1 34 -12 52q22 34 44 76q22 43 18 60q-6 15 -21 11q-10 -4 -21 -32q-12 -37 -78 -109q-67 -67 -145 -106q-21 -10 -19 -28q0 -19 18 -28q19 -13 47 -1q33 16 104 91q1 3 5 6
q3 -51 4 -180zM635 481q-1 -7 -3 -18q-7 -79 -45 -152q-33 -61 -94 -123q-85 -87 -145 -124q-25 -15 -16 -31q7 -15 30 -25q22 -12 66 32q46 40 105 112q64 85 95 149q48 91 58 157q1 9 2 15q36 -3 78 -6q51 1 77 -15q16 -12 17 -40q4 -28 -18 -95q-25 -84 -64 -151
q-33 -64 -65 -94q-15 -19 -24 -40q-3 -7 4 -24q6 -10 15 -12q15 -1 28 6q19 13 39 42q24 28 66 136q58 138 73 201q1 13 11 30q7 16 6 27q0 9 -7 25q-6 13 -10 24q-4 13 -33 31q-21 10 -56 -2q-15 -4 -79 1q-34 1 -117 20q-49 9 -80 24q-33 16 -65 6q-34 -15 -46 -33
q-16 -19 11 -32q16 -9 37 -5q31 4 68 -1q25 -1 54 -9q13 -3 27 -6zM458 337l-50 -38q-24 -22 -15 -40q10 -18 28 -20q18 -1 44 28q22 31 38 60q13 25 20 44q4 15 -4 20q-10 4 -22 -12q-22 -25 -39 -42v0z" />
    <glyph glyph-name="uni5219" unicode="&#x5219;" 
d="M642 517q3 -52 4 -153q1 -78 1 -89q-1 -22 5 -31q22 -31 46 -10q9 7 3 48q-4 40 -5 94q-1 57 1 83q3 36 5 50q4 13 -7 24q-19 16 -38 14q-16 -1 -15 -30zM873 633q-6 -52 -2 -143q6 -189 3 -366q1 -57 -10 -84q-18 -34 -79 -42q-69 -9 -115 3q-40 9 -47 3q-6 -7 3 -20
q18 -21 54 -32q79 -22 149 -13q63 10 85 50q13 30 9 123q-7 300 1 401q6 58 12 88q10 28 -7 50q-15 21 -35 17q-19 -4 -21 -35zM434 547q6 -6 5 -58q1 -102 -8 -261q-1 -30 5 -39q7 -12 16 -11q10 -1 21 13q7 9 9 34q9 136 6 218q-1 43 6 88q6 37 -15 60q-12 13 -48 18h-85
q-52 0 -111 1q-51 -1 -63 -11q-13 -10 -12 -42q1 -22 -1 -68q-1 -40 -2 -263q0 -34 7 -44t18 -10q13 0 24 24q7 13 6 41q-4 102 -2 236q1 58 7 69q6 12 95 15q103 6 122 -10zM360 410q1 19 2 30q4 28 -17 47q-15 10 -32 5q-15 -6 -11 -31q4 -22 6 -68q-4 -88 -16 -139
q-19 -73 -47 -111q-31 -43 -79 -73q-40 -28 -69 -36q-46 -13 -45 -38q1 -16 18 -22q27 -10 66 11q61 31 115 84q37 37 56 83t37 126q13 81 16 132zM382 118q52 -76 82 -100q21 -24 44 -18q27 4 38 24q7 15 -20 29q-79 49 -125 88q-12 9 -21 0q-6 -7 2 -23v0z" />
    <glyph glyph-name="uni521A" unicode="&#x521a;" 
d="M511 561q7 -7 8 -33q1 -168 6 -284q4 -159 10 -216q4 -40 21 -55q13 -13 32 -5q22 12 14 55q-30 147 -34 342q-3 126 14 188q10 36 -7 53q-16 16 -49 12q-31 -1 -168 -3q-114 -1 -143 4q-34 9 -49 4q-10 -6 -20 -21q-10 -16 -8 -46q7 -201 0 -290q-7 -85 -25 -141
q-16 -40 -44 -96q-22 -31 -20 -45q4 -22 24 -23q19 1 46 33q21 37 40 89q16 51 25 125q10 102 8 298q0 36 5 50q16 22 165 16q79 1 109 0q28 -1 40 -11zM367 278q45 -57 71 -99q15 -19 29 -23q10 0 16 13q4 16 -12 41q-46 69 -76 109q19 28 39 46q28 28 31 69q3 37 -16 40
q-19 1 -31 -22q-28 -49 -53 -94q-6 6 -8 9q-30 34 -52 68q-12 19 -42 17q-22 -1 -29 -16q-6 -13 9 -28q48 -39 95 -95q-27 -37 -68 -89q-22 -25 -26 -49q-1 -16 12 -18q7 -1 24 15q46 49 87 106zM935 655q-12 25 -27 25q-18 0 -26 -14q-9 -19 -12 -77q0 -325 7 -383
q4 -72 -20 -99q-25 -42 -75 -69q-58 -33 -92 -29q-13 1 -13 -8q-1 -10 11 -24q13 -21 23 -24q22 -12 49 -1q52 13 104 59q39 37 58 83q16 31 6 115q-10 94 -9 200q6 105 18 176q9 46 -2 70zM682 541q3 -60 3 -175q1 -90 1 -102q-1 -25 6 -36q22 -31 46 -10q10 9 4 55
q-4 45 -6 106q-1 64 1 94q3 40 6 56q4 16 -8 28q-19 16 -38 14q-16 -1 -15 -30v0z" />
    <glyph glyph-name="uni5343" unicode="&#x5343;" 
d="M473 343q-1 -162 -4 -299q-4 -58 11 -100q6 -15 20 -15q10 0 18 13q12 22 11 57q-3 208 -3 343q25 0 52 -2q106 -7 166 -21q67 -16 136 -47q31 -13 54 7q16 13 35 44q10 19 -12 22q-220 33 -372 39q-30 1 -59 1q0 69 2 114q0 28 10 49q1 3 1 5q6 3 12 4q34 10 54 12
q31 4 37 26q1 24 -8 43q-12 22 -33 7q-19 -13 -56 -29q-48 -19 -128 -36q-61 -13 -125 -15q-16 0 -17 -13q-1 -12 24 -16q43 -7 111 -2q28 3 57 6q6 -18 6 -51v-105q-94 1 -192 -10q-115 -13 -153 -9q-34 4 -60 -26q-25 -33 -11 -56q22 -22 59 -4q31 13 85 32q52 16 156 27
q57 6 116 5v0z" />
    <glyph glyph-name="uni58C1" unicode="&#x58c1;" 
d="M245 484q4 4 48 11q81 7 112 4t43 12q7 9 5 27q-1 13 1 37q4 22 8 36q10 28 1 36q-4 4 -16 6q-15 4 -48 0q-18 -1 -82 -3q-52 0 -64 2q-28 6 -52 -15q-19 -19 -16 -59q7 -58 3 -98q-4 -30 -19 -57q-15 -25 -37 -44q-24 -19 -50 -34q-25 -13 -35 -28q-6 -13 4 -23t25 -9
q16 -1 33 10q28 13 53 35q25 21 48 55q16 28 22 75q3 19 13 24zM324 615q73 3 79 -3q7 -7 6 -29q-1 -27 -9 -39q-1 -1 -81 -4q-76 -4 -78 -1q-7 6 -7 31q1 25 14 38q4 4 76 7zM397 421q-72 0 -95 -2q-12 1 -28 2q-13 1 -21 -9q-7 -10 -8 -39q0 -21 2 -53q1 -49 15 -58
q12 -7 37 -1q10 3 33 4q28 1 55 -3q22 -3 40 7q13 7 20 23q7 19 8 36q-1 16 -1 25q0 13 3 24q7 25 -12 37q-15 9 -48 7zM380 312q-24 0 -60 -3q-16 -1 -19 2q-4 4 -4 32q-1 31 4 35q7 4 41 6q45 0 51 -5q4 -4 6 -28q1 -33 -8 -39h-11zM734 601q7 18 12 32q1 43 -27 54
q-34 10 -49 -8q-6 -12 12 -47q9 -13 11 -31q-79 -1 -111 3q-31 4 -49 -16q-13 -13 -10 -27q4 -18 32 -11q19 6 45 7q109 6 163 5q34 -1 66 -10q36 -9 57 10q16 16 14 28q-3 18 -67 14q-25 0 -99 -3zM501 17q-69 1 -218 -4q-27 0 -48 -1q-39 -1 -67 -22q-24 -22 -12 -41
t53 -10q99 19 296 22q79 1 183 -1q70 -6 147 -29q31 -12 50 5q24 19 44 51q13 22 -14 22q-28 -1 -95 1q-70 3 -264 6v22q-1 19 -1 52q63 1 141 -1q28 -1 41 14q7 13 -4 25q-12 9 -35 9q-73 1 -142 1q1 13 4 25q7 31 -8 55q-15 19 -39 15q-22 -6 -20 -40q4 -28 6 -54
q-31 1 -63 1q-45 0 -73 6t-51 -16q-15 -19 -9 -32q6 -15 37 -13q46 4 126 6q16 0 35 -1q1 -15 1 -32q-1 -22 -1 -41zM750 337q-4 1 -8 0v21q0 22 6 39q37 0 63 -3q40 -4 87 -15q13 -3 25 5q13 7 15 18q4 16 0 22q-7 9 -27 10q-84 4 -151 6q7 9 21 21q16 19 26 25
q18 13 16 28q-1 15 -25 26q-21 9 -28 -9q-4 -12 -25 -64q-10 -16 -14 -27q-13 1 -27 0q-22 1 -42 -1l-2 8q-13 37 -19 68q-1 16 -9 21q-10 7 -25 2q-22 -7 -22 -19q0 -10 14 -29q19 -25 37 -51q-43 0 -80 -4t-47 -16q-15 -16 -1 -32q13 -15 50 -4q22 4 60 10q27 3 66 3
q6 -16 6 -48q-1 -4 -1 -10q-31 0 -63 -4q-48 -4 -63 -3q-13 1 -25 -11q-16 -22 -7 -37q15 -15 40 -3q12 4 31 11q19 6 57 9q13 1 27 0v-1q-4 -57 11 -95q6 -15 19 -15q10 0 17 13q12 21 11 54q-1 22 -2 41q37 -3 59 -8q24 -7 49 -19q21 -9 36 5q10 10 24 30q7 12 -8 14
q-90 15 -152 18v0z" />
    <glyph glyph-name="uni5927" unicode="&#x5927;" 
d="M482 316l8 24q4 16 7 40q124 3 199 -8q34 -6 53 5q30 21 33 36q4 15 -35 15q-162 1 -246 -4q4 51 4 122q-1 16 -1 33q1 31 -7 42q-10 12 -26 11t-25 -14q-7 -13 -6 -39q7 -88 6 -156q-54 1 -107 0q-43 -1 -60 6q-33 3 -68 -3q-31 -9 -46 -30q-10 -21 1 -38q13 -15 67 0
q72 18 211 21q-1 -19 -4 -37q-12 -55 -55 -104q-43 -48 -116 -91q-96 -57 -179 -73q-19 -6 -22 -13q-4 -13 5 -31q10 -21 30 -27q16 -3 60 14q45 16 131 75q76 52 130 117q19 24 34 53q6 -1 12 -5q28 -12 88 -56q76 -55 240 -195q34 -33 79 -19q61 19 75 30q31 25 -21 33
q-64 13 -173 71q-130 73 -212 140q-51 40 -64 55v0z" />
    <glyph glyph-name="uni5B89" unicode="&#x5b89;" 
d="M773 512q6 -1 11 -15q9 -19 12 -43q4 -30 10 -46q4 -28 12 -35q9 -6 18 -5q7 1 17 12q12 16 13 38q-1 16 -7 30q-3 6 -6 20q-1 13 -2 21q1 18 -5 31q-7 18 -33 31q-33 18 -80 18q-82 1 -203 2q13 30 16 54q1 43 -27 54q-34 10 -49 -8q-6 -12 12 -47q13 -22 13 -53
q-120 1 -213 -3q-54 -1 -68 -14q-16 -15 -24 -48q-13 -48 -17 -81q-1 -37 5 -50q7 -13 22 -16q13 -1 25 9q13 13 12 51q0 37 3 59q3 16 9 25q10 12 64 18q63 9 172 9q124 1 192 -3q78 -4 96 -15zM451 107q-16 -7 -34 -18q-108 -57 -139 -67q-37 -15 -46 -26q-10 -15 -5 -29
q3 -10 25 -16q28 -3 65 20q61 25 178 93q7 4 16 9q76 -45 161 -99q51 -34 68 -33q21 1 30 16q6 10 -1 26q-9 16 -67 47q-70 40 -138 76q60 37 98 68q37 28 36 56q85 -7 181 -35q31 -13 50 5q24 19 44 51q12 22 -15 22q-28 -1 -94 0q-60 3 -189 5q-28 40 -52 68
q-16 16 -22 28q-10 22 -28 31q-18 10 -35 -1q-7 -7 -4 -28q4 -16 33 -46q28 -25 46 -51q-64 3 -140 3q-30 1 -73 0q9 10 22 24q42 45 51 50q28 15 33 36q1 22 -10 37q-7 10 -19 8q-21 -3 -31 -24q-12 -25 -57 -70q-36 -37 -58 -62q-60 0 -136 -4q-34 1 -60 0q-39 -1 -67 -23
q-24 -22 -12 -41t53 -10q70 15 187 21q-3 -16 10 -30q13 -15 80 -50q31 -16 65 -37zM597 195q-33 -24 -93 -59q-1 1 -3 2q-61 28 -100 57q-25 16 -30 32q46 4 102 4q69 3 154 0q-4 -19 -30 -36v0z" />
    <glyph glyph-name="uni5BA4" unicode="&#x5ba4;" 
d="M751 605q-91 1 -223 2q10 16 14 30q1 43 -27 54q-34 10 -49 -8q-6 -12 12 -47q9 -10 12 -29q-3 1 -5 0q-136 1 -242 -3q-57 -1 -72 -15q-18 -16 -25 -51q-13 -48 -17 -81q-1 -37 5 -50q7 -13 22 -16q13 -1 25 9q13 13 12 51q0 37 3 59q3 16 9 25q10 13 72 21q70 9 194 8
q141 1 217 -3q88 -6 109 -17q6 -4 11 -20q10 -25 11 -54q1 -37 7 -58q4 -28 12 -35q9 -6 18 -5q7 1 17 12q12 16 13 38t-6 42q-3 7 -4 28q-1 18 -1 29q1 19 -6 33q-7 19 -34 32q-34 19 -84 19zM786 36q-145 7 -256 8v3q-3 13 -3 80q64 1 142 0q31 -1 44 15q9 15 -5 26
q-12 10 -37 10q-73 1 -145 0q0 52 4 71v3q49 4 129 18q21 4 37 21q10 13 12 23q-1 21 -41 56q-22 22 -35 29q-12 6 -18 12q-9 10 -26 13q-15 1 -26 -11q-7 -9 -3 -19q6 -13 39 -29q9 -4 27 -23q13 -16 13 -27q-3 -3 -9 -2q-73 -25 -167 -19q-61 3 -94 13q-10 1 -11 7
q0 7 32 34q57 49 75 58q30 12 36 23q4 9 5 19q54 1 87 -3q42 -4 92 -16q13 -3 26 5q13 7 16 19q4 16 0 24q-7 9 -28 10q-127 7 -218 7q-90 0 -157 -6q-39 -3 -50 -16q-16 -19 -1 -34q13 -16 52 -5q25 6 64 11q18 1 41 2q-16 -13 -42 -39q-39 -34 -58 -46q-46 -31 -50 -63
q-1 -15 12 -27q19 -16 38 -11q27 9 59 1q37 -7 77 -11q0 -1 1 -3q1 -15 3 -69q-33 1 -64 1q-46 -1 -74 5q-31 7 -54 -17q-16 -19 -10 -35q6 -15 39 -13q46 6 129 8q16 1 35 0q0 -57 -3 -74q-1 -4 -2 -9q-91 1 -190 -1q-79 0 -130 -2q-31 -1 -54 -23q-24 -22 -23 -43
q1 -15 15 -22q15 -9 65 9q73 22 174 32q97 9 165 11q151 -4 244 -21q75 -13 114 -27q34 -12 55 -3q22 9 35 23q31 36 27 45q-3 10 -33 12q-37 -6 -143 2v0z" />
    <glyph glyph-name="uni5BB9" unicode="&#x5bb9;" 
d="M805 532q4 -3 10 -16q9 -21 11 -44q1 -31 8 -48q4 -28 12 -35q9 -6 18 -5q7 1 17 12q12 16 13 38q0 18 -6 32q-1 6 -4 21q-1 13 -1 22q1 19 -6 33q-7 19 -34 32q-34 19 -84 19q-94 1 -235 2q10 21 14 38q1 43 -27 54q-34 10 -49 -8q-6 -12 12 -47q10 -15 11 -37
q-141 1 -250 -3q-57 -1 -72 -15q-18 -16 -25 -51q-13 -48 -17 -81q-1 -37 5 -50q7 -13 22 -16q13 -1 25 9q13 13 12 51q0 37 3 59q3 16 9 25q12 13 74 21q73 10 200 9q144 1 222 -4q91 -4 112 -17zM362 480q-18 -16 -104 -87q-31 -25 -34 -32q-4 -10 8 -12q16 -1 91 39
q39 22 59 26q25 6 29 23q4 18 -14 39q-19 21 -35 4zM596 421q16 -3 40 -10q33 -10 80 -43q28 -18 25 7q-3 15 -38 48q-43 37 -76 52q-34 13 -53 -1q-19 -16 -9 -36q9 -12 31 -17zM511 317q27 -9 96 -50q81 -49 130 -86q85 -61 111 -76q24 -12 61 4q54 22 64 40q6 13 -15 15
q-37 1 -148 47q-94 37 -199 100q-78 49 -80 66q-3 13 -17 25q-10 9 -18 9q-15 -1 -24 -11q-7 -9 -14 -28q-6 -13 -11 -19q-4 -3 -18 -15q-19 -19 -124 -73q-139 -76 -233 -101q-19 -6 -21 -15q-3 -13 12 -29q13 -16 26 -21q13 -4 24 0q19 7 147 81q124 72 167 109
q22 19 42 27q18 7 42 1zM622 -54q25 -4 48 7q16 9 24 27q10 22 11 44q0 43 -1 69q0 16 3 29q10 28 -15 43q-18 10 -57 7q-181 1 -243 -3q-13 1 -33 4q-16 1 -26 -11q-9 -13 -10 -47q0 -40 2 -101q1 -58 18 -69q16 -10 46 -1q27 7 87 9q75 4 146 -7zM643 73q1 -55 -12 -65
q-13 -3 -31 -3q-64 1 -160 -5q-43 -1 -53 8q-7 7 -7 53q-1 51 8 57q18 13 110 15q120 1 136 -13q9 -7 9 -47z" />
    <glyph glyph-name="uni5DDD" unicode="&#x5ddd;" 
d="M337 557q6 34 -20 53q-15 9 -34 -2q-16 -9 -10 -37q6 -30 6 -64q-1 -159 -25 -230q-22 -72 -71 -126q-55 -61 -107 -88q-28 -16 -14 -37q10 -15 34 -25q21 -9 46 11q73 73 116 150q39 69 61 191q15 78 16 136q0 34 2 68zM575 529q9 34 -6 59q-15 22 -40 17
q-24 -4 -23 -41q9 -115 7 -210q-1 -103 -9 -230q-7 -63 9 -82q13 -13 30 -2q18 10 17 60q-3 100 2 312q1 63 13 117zM775 618q4 -121 1 -355q-1 -181 -3 -207q-3 -51 12 -73q21 -30 44 -10q19 16 7 107q-7 88 -9 208q-1 126 2 182q7 81 13 110q7 31 -16 53q-19 16 -37 14
q-15 -1 -14 -29v0z" />
    <glyph glyph-name="uni5FAE" unicode="&#x5fae;" 
d="M323 466q1 -16 1 -31q-1 -13 10 -21q13 -13 41 1q19 9 65 11q66 4 87 -2q22 -9 32 -6q13 4 20 17q12 22 12 61v12q1 7 1 9q7 18 1 33q-6 13 -17 17q-10 3 -19 -5q-9 -7 -11 -26q-4 -31 -6 -50q-1 -13 -4 -18q-1 -4 -19 -4q-22 1 -41 -1q1 12 2 28q-1 22 1 72q1 15 4 27
q6 28 -7 49q-13 18 -34 14q-19 -4 -18 -35q4 -28 5 -52q1 -25 1 -57q-3 -30 0 -48q-21 0 -38 -3q-12 -1 -16 1q-3 1 -3 8q-4 28 -4 55q0 22 -11 35q-7 7 -18 8q-10 -1 -14 -10q-4 -10 -3 -38q-1 -39 0 -51zM776 132q33 -48 81 -130q19 -34 74 -31q30 1 50 17q21 13 -2 27
q-51 30 -88 63q-34 30 -76 75q-10 10 -18 20q4 10 9 22q18 51 24 98q1 19 6 32q7 21 0 32q-6 10 -17 12q-16 1 -28 -6q-7 -6 -5 -28q1 -22 -7 -74q-4 -27 -16 -52q-13 13 -24 23q-18 16 -34 40q-21 30 -55 28q-22 -1 -30 -19q-9 -22 20 -32q34 -10 54 -26q27 -22 50 -49
q-18 -25 -42 -49q-31 -28 -54 -36q-28 -12 -42 -28q-12 -10 -8 -27q4 -9 18 -14q13 -6 35 2q25 10 60 38q28 22 60 64q1 4 5 8zM672 385q7 -1 23 5q10 4 40 7q31 1 60 1q31 -1 49 -5t32 -11q28 -13 48 2q19 13 25 35q4 22 -17 21q-112 7 -190 4q-13 -1 -29 2q-7 1 -12 0
q12 28 21 52q13 40 28 72q6 10 1 25q-6 15 -21 28q-21 16 -34 12q-16 -4 -13 -27q9 -64 -10 -128q-21 -58 -67 -124q-19 -31 -9 -41q7 -7 23 2q16 10 36 40q7 15 16 28zM424 311q37 0 60 -2q22 -1 50 -7q7 -1 14 3q12 7 14 17q4 15 0 21q-6 9 -25 10q-67 1 -117 1
q-46 -1 -83 -5q-34 -3 -45 -14q-13 -16 0 -31q12 -13 47 -4q13 3 34 7q19 1 51 4zM350 194q-3 -33 -7 -58q-6 -19 -25 -50q-19 -22 -37 -36q-28 -25 -28 -52q1 -15 14 -21q13 -4 30 10q48 40 67 86q16 36 29 119v2q4 1 9 4q10 7 28 11q7 3 12 1q7 0 10 -10q1 -6 -4 -58
q-7 -70 -3 -94q4 -18 21 -26q16 -10 47 -1q39 10 59 43q19 28 3 39q-7 4 -30 -12q-12 -7 -35 -16q-7 -4 -16 2q-4 1 -8 13q-1 12 4 40q10 52 16 57q16 10 18 19q3 22 -14 37q-15 13 -70 11q-31 1 -53 -6q-7 -3 -16 -3q-22 -1 -30 -10q-7 -10 -7 -22t16 -19zM241 638
q-10 -24 -57 -66q-48 -39 -101 -59q-21 -9 -21 -28q0 -18 17 -28q19 -13 47 -3q22 9 70 55q34 31 68 88q25 43 20 60q-4 15 -20 12q-10 -4 -23 -31zM165 171q1 -81 -2 -157q-4 -40 7 -53q21 -22 35 -6q19 19 14 72q-1 25 0 111q0 73 4 139q1 30 -9 48q25 30 50 72
q25 43 20 59q-4 16 -20 13q-10 -4 -23 -31q-10 -25 -62 -72q-49 -43 -108 -65q-21 -9 -21 -28q0 -18 17 -28q19 -13 47 -3q16 7 49 34q1 -28 2 -105v0z" />
    <glyph glyph-name="uni5FD7" unicode="&#x5fd7;" 
d="M549 389q1 15 2 36q-1 28 -1 76q46 1 103 -2q61 -6 129 -26q31 -12 48 4q22 19 42 49q12 21 -13 20q-28 -1 -91 2q-58 3 -217 6q1 25 6 48q7 34 -8 59q-15 21 -40 16q-24 -6 -22 -42q4 -43 6 -80l-1 1q-60 1 -194 -2q-24 1 -42 0q-37 -1 -64 -21q-24 -21 -12 -39
q10 -18 50 -10q87 16 262 18h2v-55q-4 -37 1 -59q-70 1 -124 -4q-39 -3 -50 -16q-16 -19 -1 -34q13 -16 52 -5q24 6 59 10q34 3 87 5q64 0 100 -4q37 -4 84 -14q13 -3 24 4q13 7 16 19q4 16 0 24q-7 9 -28 10q-94 6 -165 6zM186 220q-51 -64 -96 -109q-19 -13 -21 -26
q0 -18 17 -33q25 -22 41 -15q13 7 27 40q31 67 62 124q12 25 1 32q-12 7 -31 -13zM539 265q-4 -12 -25 -63q-21 -34 -21 -41q-1 -10 12 -8q9 1 46 34q19 16 30 23q21 13 19 32q-1 18 -27 31q-24 13 -34 -8zM754 252q-10 -16 -67 -91q-28 -33 -29 -39q-3 -12 11 -11
q15 1 72 46q31 24 47 31q24 10 25 30q1 19 -23 37q-22 16 -36 -3zM345 234q-40 -160 -23 -189q22 -31 121 -57q178 -49 367 -58q54 -3 85 40q63 100 64 119q1 22 -26 1q-66 -57 -111 -66q-91 -21 -181 -13q-121 6 -203 25q-48 10 -67 32q-13 25 -5 55q10 34 33 48
q22 16 18 48q-3 28 -33 35q-33 7 -39 -20v0z" />
    <glyph glyph-name="uni65E0" unicode="&#x65e0;" 
d="M870 -25q37 -6 66 29q19 27 29 68q4 31 -21 18q-34 -22 -74 -32q-43 -12 -116 -10q-78 4 -111 14q-28 7 -41 28q-13 24 -15 64q7 91 10 101q7 25 -6 49q-10 16 -35 11q-22 -7 -19 -39q4 -30 1 -130q0 -54 19 -84q19 -33 59 -45q121 -30 254 -42zM430 540q19 0 41 -1
q-1 -16 1 -45q1 -61 -1 -113q-64 1 -134 -1q-63 1 -106 6q-46 7 -76 -13q-25 -22 -22 -43q4 -22 40 -17q163 21 295 27q-4 -52 -15 -93q-16 -54 -57 -90q-40 -33 -117 -58q-88 -28 -184 -39q-22 1 -29 -8q-7 -10 -4 -32q3 -15 15 -23q15 -9 30 -11q55 3 164 38
q108 37 166 98q49 51 64 119q13 51 20 99q87 -1 177 -10q40 -6 70 -14q34 -12 66 9q24 19 39 49q10 19 -19 18q-121 -4 -329 -10q3 31 4 62q-1 28 6 46q4 27 0 49q79 1 178 0q31 -1 44 15q9 15 -5 26q-12 10 -37 10q-168 1 -326 0q-55 -1 -90 6q-31 7 -54 -17
q-16 -19 -10 -35q6 -15 39 -13q57 7 156 9v0z" />
    <glyph glyph-name="uni6709" unicode="&#x6709;" 
d="M432 511q-19 -49 -58 -96q-48 -51 -122 -93q-76 -40 -131 -53q-36 -7 -56 -23q-15 -10 -14 -30q1 -10 17 -20q13 -10 41 -6q58 16 134 55q63 33 134 93q40 34 78 102q19 37 34 73q4 1 8 1q151 -1 243 -18q73 -12 114 -26q31 -10 52 -3q21 9 34 22q28 34 26 44
q-3 10 -32 12q-37 -7 -141 1q-169 7 -292 6q4 16 8 30q3 25 8 40q7 27 0 40t-22 15q-19 1 -34 -8q-10 -7 -6 -34q3 -25 -11 -83q-75 1 -157 -2q-79 0 -129 -3q-31 -1 -52 -22q-22 -21 -22 -41q1 -15 15 -22q13 -7 62 9q73 22 172 33q52 4 99 7zM463 120q4 -1 13 0
q28 4 140 6q100 1 132 -5q-1 -79 4 -151q1 -12 11 -21q9 -9 18 -9q16 3 25 20q13 22 -1 66q-13 51 -12 185q3 81 11 119q1 15 11 28q9 13 7 23q-1 12 -12 22q-13 15 -35 15q-19 -1 -130 0q-117 1 -138 2q-22 3 -32 4q-12 0 -22 -14q-7 -13 -2 -49q6 -45 6 -94
q-1 -57 -38 -136q-34 -64 -110 -138q-18 -16 -18 -25q0 -10 7 -18q16 -15 28 -14q13 1 36 22q31 34 61 77q22 39 40 85zM616 169q-97 -1 -135 3q10 40 16 76h7q25 4 126 5q97 1 123 -4q0 -18 -1 -41l-2 -36q-31 -1 -134 -3zM630 297q-97 -1 -128 4h-2q1 3 1 4q0 46 8 61
q4 9 82 10q100 1 134 -4q12 -1 16 -7q10 -12 13 -65q-25 -1 -124 -3v0z" />
    <glyph glyph-name="uni6B32" unicode="&#x6b32;" 
d="M206 519q28 12 41 42q13 27 -13 39q-30 13 -59 -21q-31 -40 -72 -74q-22 -16 -22 -32q3 -12 16 -9q22 6 52 26q25 16 57 29zM379 550q16 -7 89 -45q36 -22 43 -23q10 -1 8 12q-3 13 -49 60q-25 25 -33 39q-13 22 -33 21q-19 -1 -34 -28q-13 -25 9 -36zM369 -30
q19 -4 46 10q10 7 15 37q6 55 18 90q13 42 7 59q-4 10 -21 19q-16 7 -30 7q-19 -1 -55 1q-57 1 -104 -2q-37 0 -74 1q-25 1 -35 -15q-6 -12 2 -40q7 -39 13 -91q1 -21 2 -41q-1 -28 17 -38q10 -7 42 1q48 10 86 9q42 -1 71 -7zM384 93q-1 -22 -3 -40q0 -12 -5 -17
q-7 -6 -24 -7q-55 -4 -101 -7q-33 -1 -39 6q-13 12 -16 56q-1 57 3 61q16 10 48 12q40 1 92 -3q33 -1 44 -11q4 -4 1 -50zM631 389q1 1 5 2q58 19 92 22q39 4 71 -8q30 -7 30 -22q1 -18 -28 -57q-28 -34 -60 -63q-10 -9 -4 -17q4 -9 23 0q58 27 98 72q48 55 47 76
q0 25 -39 44q-37 16 -138 16q-40 -1 -62 6q-3 1 -7 1q7 25 14 48q13 49 28 89q6 10 -1 27q-7 16 -26 30q-22 16 -38 11q-18 -7 -12 -32q16 -75 -3 -153q-19 -70 -70 -152q-18 -36 -7 -46q9 -7 25 3q18 13 37 47q13 28 25 56zM728 72q88 -81 130 -113q22 -18 53 -8
q73 25 78 38q3 7 -10 13q-63 19 -122 49q-52 28 -81 47q-16 10 -52 39q-39 33 -52 49l-2 2q4 13 8 23q7 34 12 49q9 22 -3 43q-10 19 -32 22q-16 3 -24 -9q-4 -7 -1 -22q1 -12 5 -33q1 -22 -8 -56q-7 -28 -23 -53q-16 -30 -49 -67q-43 -51 -101 -99q-10 -10 -8 -23
q3 -12 24 -19q18 -4 36 11q45 40 82 89q31 40 59 92q1 6 5 10q19 -19 76 -74zM111 221q87 49 182 145q16 18 45 5q61 -39 115 -91q21 -19 37 -24q13 -3 23 7q10 12 -2 32q-21 30 -87 68q-52 31 -92 75q-12 13 -22 13q-13 0 -25 -19q-34 -58 -114 -107q-66 -42 -98 -47
q-30 -7 -37 -20q-7 -15 6 -32q16 -19 30 -22q12 -1 39 17v0z" />
    <glyph glyph-name="uni6D77" unicode="&#x6d77;" 
d="M152 595q48 -12 66 -22q16 -9 31 -8q10 1 13 13q1 18 -18 31q-25 16 -48 40q-24 28 -60 11q-33 -16 -29 -40q4 -18 45 -25zM96 351q45 -6 63 -14q16 -7 31 -5q10 1 11 14q0 18 -21 29q-24 13 -45 34q-25 25 -61 6q-31 -19 -25 -43q7 -18 47 -21zM210 162
q-63 -73 -117 -123q-19 -13 -22 -25q-1 -18 15 -34q25 -24 40 -17q13 7 29 38q42 78 84 140q12 24 2 32q-12 7 -31 -11zM489 639q10 15 6 34q-4 16 -19 22q-12 6 -19 -1q-6 -4 -6 -17q-1 -9 -3 -26q-4 -12 -15 -28q-10 -13 -23 -25q-15 -13 -39 -27q-34 -19 -74 -34
q-16 -7 -16 -24q0 -15 21 -29q19 -10 44 2q30 16 55 39q22 18 43 43q6 7 12 15q4 0 11 1q73 13 193 12t170 -12q27 -7 43 5q13 10 18 27q4 13 -7 20q-10 6 -38 6q-87 0 -219 -2q-100 -1 -138 -1zM815 306q10 58 11 82q0 22 8 41q9 19 -6 44q-15 18 -60 21q-120 4 -248 10
q-54 1 -67 -7q-13 -9 -25 -60q-13 -60 -30 -126q-76 -7 -103 -4q-28 4 -49 -21q-22 -28 -9 -49q18 -18 51 -3q25 10 68 25q13 4 31 7q-13 -46 -27 -97q-18 -60 -7 -77q13 -21 65 -14q100 10 172 4q52 -1 95 -8q-4 -6 -8 -13q-40 -55 -62 -69q-19 -12 -24 -26q-4 -10 13 -25
q10 -10 28 -7q22 4 53 37q37 37 57 84q1 4 4 7q57 -10 84 -22q27 -13 47 -10q25 3 27 20q3 18 -9 33q-13 18 -43 23q-36 7 -83 13q13 43 32 111q1 15 5 28q48 -13 98 -37q27 -12 47 7q13 12 30 38q10 16 -10 19q-85 13 -156 21zM668 319q-103 7 -215 -3q10 37 19 71
q13 46 28 56q13 10 66 13q43 1 81 0q34 -1 73 -8q30 -7 39 -23q10 -19 8 -58q-1 -25 -6 -55q-49 6 -93 7zM754 269q-7 -34 -17 -74q-10 -36 -26 -70q-45 4 -97 6q-99 7 -160 7q-30 -1 -37 6q-6 7 8 60q9 37 18 71q18 3 39 5q88 6 179 -1q54 -3 93 -10zM580 426q-9 -16 0 -30
q7 -12 13 -40q4 -19 18 -19q10 1 15 28q3 15 9 30q7 13 1 26q-10 19 -28 20q-18 0 -28 -15zM560 250q-10 -18 -1 -35q7 -13 14 -47q4 -19 18 -19q10 1 15 28q3 18 10 36q9 16 0 32q-10 19 -28 20q-18 0 -28 -15v0z" />
    <glyph glyph-name="uni71D5" unicode="&#x71d5;" 
d="M537 189q19 -4 41 9q10 6 14 33q6 43 16 71q12 37 6 52q-3 10 -18 18q-15 6 -27 6q-16 -1 -50 0q-22 1 -41 -2q-34 0 -66 1q-24 1 -32 -13q-4 -10 2 -36q7 -30 11 -70q3 -19 2 -38q0 -24 16 -33q9 -7 37 0q27 6 49 6q24 -1 40 -4zM551 294q-1 -18 -3 -32q0 -10 -5 -14
q-4 -3 -13 -4q-31 -3 -59 -5q-19 -3 -23 2q-10 10 -13 45q-3 46 2 49q9 7 30 7q25 1 56 -2q22 -1 29 -8q1 -3 -1 -38zM276 305q1 -24 2 -50q0 -33 -24 -37q-82 -19 -98 -20q-24 0 -28 -20q-3 -19 13 -31q28 -19 52 -5q22 15 84 27q18 4 34 15q12 9 10 25q-1 16 -1 29
q4 22 2 43q-1 34 6 102q4 30 -11 45q-10 10 -30 2q-16 -7 -14 -35q1 -22 2 -45q-7 1 -15 0q-66 -6 -88 0q-19 3 -28 -14q-15 -31 4 -54q10 -12 32 -2q13 6 26 11q13 4 49 10q10 1 21 4zM715 293h10q49 -1 128 4q24 6 26 15q1 12 -10 31q-10 15 -19 18q-9 1 -23 -11
q-4 -4 -12 -7q-16 -6 -75 -19q-13 -1 -22 -5q4 33 7 38q7 25 -4 47q-10 16 -33 10q-21 -6 -19 -36q3 -27 -3 -119q1 -51 21 -78q10 -16 30 -23q63 -16 132 -24q28 -1 47 28q13 22 16 55q1 24 -17 11q-24 -19 -53 -31q-19 -6 -53 -7q-36 0 -51 4q-15 3 -19 12q-10 24 -7 59
q1 16 3 28zM247 82q-10 -16 -42 -58q-25 -30 -52 -58q-10 -10 -4 -19q6 -7 20 0q30 15 68 42q28 22 49 32q31 16 14 55q-22 46 -53 6zM402 48q7 -40 13 -79q1 -7 8 -16q4 -4 9 -3q4 1 7 12q10 46 20 95q6 31 2 48q-6 16 -25 21q-19 3 -32 -14q-10 -15 -2 -64zM571 42
q10 -34 19 -70q1 -7 9 -16q4 -4 9 -2q4 1 7 13q6 43 13 91q3 30 -2 45q-7 16 -26 19q-19 1 -31 -16q-10 -16 2 -64zM731 41q33 -21 85 -58q30 -27 40 -26q16 3 11 19q-6 16 -24 35q-40 58 -46 71q-15 22 -45 18q-25 -7 -36 -26q-9 -18 15 -33zM637 593q1 16 4 22q7 21 6 33
q-3 12 -12 22q-7 7 -20 9q-13 0 -20 -12q-10 -19 -9 -42q0 -7 -1 -29q-3 1 -4 1q-76 4 -155 0q0 9 1 16q0 31 -12 48q-15 15 -27 15q-13 1 -19 -12q-9 -16 -1 -48q1 -7 3 -22q-37 -1 -75 -6q-109 -13 -144 -9q-31 4 -57 -25q-25 -31 -10 -53q21 -21 57 -4q30 12 79 29
q49 16 146 26q4 1 9 0q0 -3 1 -7q6 -60 5 -62q-6 -46 6 -64q10 -13 40 -4q24 9 55 11q51 3 63 -3q18 -9 32 -5q19 6 30 22q12 18 17 50q4 27 8 58q57 -4 95 -15q63 -15 127 -44q30 -13 52 7q16 13 34 43q10 18 -12 21q-168 25 -292 33zM581 502q-4 -33 -51 -29q-34 1 -61 -1
q-34 -3 -40 28q-1 30 -3 55q70 4 148 -2q4 0 9 -1q-1 -31 -2 -50v0z" />
    <glyph glyph-name="uni767E" unicode="&#x767e;" 
d="M673 9q43 -7 69 13q22 16 20 69q-4 124 7 233q7 34 -13 49q-27 19 -73 21q-72 1 -181 -3q3 10 5 21q13 76 25 100v1q73 1 163 -1q84 -7 177 -34q33 -13 52 5q25 21 45 53q13 24 -14 23q-30 -1 -99 1q-94 3 -381 8q-82 1 -270 -5q-34 0 -58 -1q-40 -1 -70 -23
q-25 -22 -13 -43q13 -19 55 -10q115 22 341 26q1 -9 3 -19q1 -16 -4 -63q-3 -22 -1 -39q-4 1 -10 0q-76 0 -131 -1q-25 0 -37 -11q-18 -16 -14 -47q1 -22 1 -46q-1 -58 2 -123q3 -60 3 -104q-1 -42 23 -57q16 -10 63 0q55 10 164 9q124 -1 151 -2zM513 186q154 1 194 -7
q1 0 2 -1q-1 -85 -18 -103q-16 -13 -52 -10q-61 3 -154 -2q-66 -1 -102 -4q-34 0 -44 9q-13 10 -17 99q-1 7 -1 12q45 7 192 7zM512 229q-141 -1 -193 4q-1 90 12 99q13 13 158 14q184 4 202 -9q16 -13 17 -103q-37 -4 -196 -5v0z" />
    <glyph glyph-name="uni77E5" unicode="&#x77e5;" 
d="M442 98q40 -46 60 -77q16 -22 32 -25q13 -1 18 14q4 18 -14 45q-43 72 -59 91t-28 39q-13 22 -47 19q-24 -1 -31 -18q-7 -15 9 -30q30 -24 60 -58zM291 288q-1 -12 -4 -23q-18 -78 -45 -117q-31 -46 -76 -77q-39 -28 -66 -37q-51 -16 -49 -45q1 -18 21 -24q30 -10 73 14
q60 34 110 90q36 40 53 87q19 48 35 133q64 1 106 -4q31 -6 50 5q28 19 32 34q1 13 -34 14q-91 1 -147 -2q7 54 8 92q1 21 2 33q1 13 -2 25q7 1 14 1q22 0 45 -5q40 -10 64 10q16 18 15 32q-3 19 -75 16q-16 -1 -73 -4q-64 -3 -88 -1q-15 3 -26 -2q1 13 4 26q4 31 10 59
q4 10 -4 26q-10 13 -29 23q-24 12 -37 5q-16 -9 -8 -31q19 -48 18 -102q-4 -49 -28 -109q-12 -37 0 -44q10 -6 23 6q15 15 28 50q4 16 9 31q4 1 11 2q12 4 30 5t35 3l1 -1q4 -24 6 -72q-1 -40 -6 -75q-37 1 -79 0q-30 -1 -41 4q-31 3 -65 -3q-30 -7 -43 -29q-10 -19 1 -36
q12 -13 64 0q49 13 145 17q6 1 12 0zM851 164q21 -4 48 11q12 7 16 39q4 75 19 122q13 43 7 62q-4 12 -22 20q-16 7 -32 8q-19 -1 -58 0q-73 3 -133 -2q-39 0 -77 1q-27 1 -37 -16q-6 -12 2 -42q10 -52 13 -122q3 -22 3 -44q-1 -28 18 -39q10 -7 44 0q58 13 103 11
q51 -1 86 -9zM868 309q-1 -30 -3 -53q0 -16 -7 -23q-9 -6 -29 -7q-67 -4 -121 -8q-39 -3 -46 8q-16 15 -19 72q-1 73 5 78q16 12 57 14q48 1 108 -3q40 -1 53 -14q6 -6 2 -64v0z" />
    <glyph glyph-name="uni7ACB" unicode="&#x7acb;" 
d="M486 478q-148 -1 -207 5q-42 6 -63 -20q-16 -19 -13 -36q4 -22 42 -14q31 10 79 13q193 10 288 7q60 -1 116 -16q46 -12 74 13q19 19 18 36q-3 24 -87 19q-48 -3 -205 -6q15 43 18 77q3 49 -29 62q-37 13 -55 -7q-7 -13 11 -53q16 -34 13 -80zM861 -12q37 -15 57 4
q27 24 50 58q13 25 -16 25q-33 -1 -108 1q-69 3 -237 6q19 33 34 83q16 52 46 105q16 27 11 62q-6 31 -35 25q-34 -6 -39 -53q-13 -99 -46 -196q-4 -13 -5 -25q-51 1 -108 2q-21 1 -47 0q1 40 -11 97q-12 49 -13 106q0 31 -23 59q-19 24 -42 4q-27 -22 -7 -66
q37 -85 59 -178q1 -13 7 -22q-76 0 -192 -5q-33 1 -58 0q-42 -1 -72 -24q-27 -24 -14 -45q13 -19 58 -11q118 22 355 25q94 1 220 -3q84 -7 176 -34v0z" />
    <glyph glyph-name="uni7EB3" unicode="&#x7eb3;" 
d="M674 474q-1 -85 -13 -114q-19 -49 -53 -90q-36 -42 -56 -54q-19 -9 -23 -21q-6 -22 12 -31q16 -7 35 2q25 16 65 68q31 39 49 79q16 -7 30 -24q33 -43 56 -93q13 -22 43 -19q27 4 46 17q4 4 6 7q0 -1 1 -4q4 -132 9 -180q4 -37 20 -53q13 -13 30 -4q21 10 13 52
q-24 123 -28 286q-1 105 12 157q10 34 -6 53q-16 16 -49 12q-30 -1 -155 -2q1 48 6 77q3 33 -9 51q-10 15 -23 15q-10 0 -20 -10t-5 -44q6 -40 7 -89q-94 1 -121 6q-36 10 -50 5q-10 -6 -21 -22q-10 -18 -8 -47q10 -165 0 -238q-9 -70 -32 -115q-19 -34 -56 -79
q-27 -31 -24 -46q3 -24 24 -26q21 0 50 31q25 31 50 75q21 43 31 105q12 85 10 251q0 31 6 42q15 21 141 14zM718 467q-1 4 -1 6q72 1 102 1q28 -1 42 -11q6 -7 7 -28q0 -130 3 -226q-4 7 -13 11q-16 9 -48 34q-42 34 -87 82q-10 13 -17 21q10 43 12 110zM161 156
q88 0 195 36q60 21 60 41q0 19 -18 19q-7 0 -59 -14q-97 -27 -149 -27q-31 0 -31 20q0 30 83 112q58 54 130 99q30 19 30 33q0 25 -10 43q-10 19 -26 19q-12 1 -20 -19q-10 -25 -43 -60q-34 -33 -38 -33q-12 0 -98 24q-33 9 -33 21q0 21 59 70q34 27 64 41q36 16 36 36
q0 16 -14 36q-10 18 -24 18q-13 0 -22 -16q-18 -36 -43 -61q-36 -34 -89 -88q-25 -25 -25 -49q0 -21 32 -36q60 -28 118 -31q7 0 10 -5q0 -3 -10 -9q-52 -33 -96 -94q-34 -46 -34 -78q1 -13 16 -31q16 -16 49 -17zM94 -18q64 19 117 35q48 13 120 21q37 4 59 19q13 12 4 24
q-4 7 -31 6q-75 -1 -153 -16q-34 -7 -61 -7q-45 0 -80 -31q-31 -28 -17 -45q13 -16 42 -6v0z" />
    <glyph glyph-name="uni8317" unicode="&#x8317;" 
d="M416 318q28 -24 43 -41l11 -11q-9 -4 -16 -8q-70 -37 -152 -67q-94 -34 -204 -55q-51 -7 -22 -48q27 -34 93 -12q97 33 234 100q109 52 235 135q40 28 62 39q24 12 23 32q-1 24 -38 37q-54 16 -73 28q-22 15 -37 39q-19 40 -53 7q-16 -16 -43 -33q-97 -55 -222 -103
q-37 -13 -21 -37q16 -22 66 -2q37 16 69 32l4 -4q21 -10 41 -28zM486 310q-28 37 -38 48q-10 10 -17 21l-2 2q4 4 10 6q25 13 67 38q19 9 43 2q16 -1 51 -20q24 -7 29 -19q-1 -22 -39 -49q-48 -30 -90 -56q-3 13 -14 27zM485 180q-40 -1 -53 -18q-7 -13 3 -41q7 -16 33 -122
q7 -37 24 -49q13 -10 34 1q25 10 91 13q60 1 99 -10q27 -7 46 2q21 10 32 42q13 30 22 64q7 28 16 46q13 25 5 40q-7 10 -27 23q-27 13 -106 15q-88 1 -167 -3q-24 -1 -52 -3zM523 9q-7 4 -11 21q-10 40 -13 71q-1 15 3 21q4 7 24 10q46 6 179 6q40 -1 53 -8q10 -7 9 -24
q-3 -34 -19 -78q-3 -10 -10 -14t-42 -3q-60 3 -141 -3q-25 -1 -32 1zM725 543q16 0 33 -3q46 -7 78 -17q34 -13 68 9q25 19 43 51q10 19 -21 19q-78 -1 -186 -4q7 24 15 34q10 18 -5 34q-18 18 -38 10q-22 -7 -22 -32q0 -13 -4 -48q-133 1 -304 -1q-1 31 2 45q4 19 -13 28
q-31 15 -54 -4q-12 -10 -3 -32q6 -13 11 -26q1 -4 2 -10q-49 3 -87 7q-48 7 -80 -14q-27 -22 -24 -44q6 -24 42 -18q82 10 159 15q1 -7 3 -17q7 -37 18 -50q10 -12 22 -4q13 12 9 49q-1 13 -3 26q66 6 127 8q81 0 166 -7q-1 -10 -2 -21q-3 -25 2 -35q7 -15 25 -7q10 6 16 36
q1 13 5 23v0z" />
    <glyph glyph-name="uni8457" unicode="&#x8457;" 
d="M641 -46q24 -4 44 7q16 9 23 26q7 21 9 41q0 79 -1 125q0 16 4 27q9 28 -14 41q-16 10 -54 8q-162 0 -217 -3q-6 1 -12 0q46 31 103 66q78 1 178 -3q79 -7 167 -33q31 -13 50 4q24 19 44 51q13 22 -14 22q-28 -1 -95 1q-73 4 -258 6q22 16 49 34q40 28 85 42q16 7 26 37
q9 36 -1 48q-13 16 -27 1q-37 -45 -200 -161q1 12 1 29q0 16 1 46q22 1 50 0q31 0 35 14q4 13 -3 23q-13 12 -60 10h-18q0 1 1 3q7 30 -7 53q-13 18 -36 14q-22 -6 -20 -37q1 -16 3 -33q-6 1 -10 1q-43 0 -93 1q-46 1 -62 -12q-15 -13 -7 -30q10 -19 51 -12q34 6 89 7
q16 0 35 -1q1 -12 1 -27q-4 -28 -1 -48q-81 3 -241 -4q-31 1 -55 0q-37 -1 -64 -21q-24 -21 -12 -39q10 -18 51 -9q102 19 298 22q-76 -46 -168 -90q-105 -48 -179 -59q-36 -4 -40 -19q-6 -18 8 -33q19 -24 33 -26q13 -1 47 14q79 36 214 117q-1 -7 -1 -20q-1 -61 2 -157
q1 -55 17 -64q13 -9 42 -1q24 6 78 7q67 4 131 -6zM426 70q25 4 122 5q87 1 115 -5q-1 -49 -16 -59q-12 -3 -28 -3q-57 1 -140 -4q-39 -1 -47 6q-9 10 -10 60h4zM548 115q-94 -1 -124 4q-1 1 -3 0q1 52 12 61q16 10 97 12q105 1 118 -11t15 -63q-30 -1 -115 -3zM780 556
q34 -6 53 5q30 21 33 36q4 15 -35 15q-66 1 -121 -1q4 16 10 25q9 16 -6 32q-19 16 -37 7q-21 -9 -19 -32q0 -10 -1 -32q-117 1 -176 -5q-61 1 -125 0q0 25 4 38q4 16 -11 27q-28 16 -52 -2q-10 -7 -3 -30q4 -13 9 -25q0 -3 1 -8q-28 1 -41 7q-33 3 -68 -3q-31 -9 -46 -30
q-10 -21 1 -38q13 -15 67 0q39 10 94 15q0 -9 2 -21q4 -37 14 -49t20 -4q13 10 12 46q-1 18 -2 32q52 6 120 7q100 3 177 -2q-1 -16 -3 -39q-1 -24 4 -33q7 -13 24 -5q10 6 14 35q3 22 7 40q43 -1 80 -8v0z" />
    <glyph glyph-name="uni964B" unicode="&#x964b;" 
d="M100 601q6 -16 6 -49q3 -283 -4 -505q-4 -57 11 -95q6 -15 19 -15q10 0 17 13q12 21 11 54q-4 400 -2 558q0 24 7 41q61 1 99 -16q21 -7 23 -24q1 -31 -16 -69q-19 -40 -60 -80q-16 -13 -11 -28q7 -10 24 -3q25 1 44 -17q21 -19 28 -57q4 -31 -19 -59q-34 -36 -79 -56
q-25 -12 -26 -24q4 -12 30 -13q31 0 66 11q31 13 55 39q21 25 26 50q6 27 -5 53q-7 28 -58 89q-19 18 -3 37q12 15 43 63q31 49 32 76q-1 16 -17 26q-19 12 -38 15q-48 7 -119 32q-46 16 -72 3q-19 -12 -25 -28q-3 -13 9 -20q1 0 4 -2zM693 338q37 -60 59 -81q16 -22 38 -19
q24 1 35 19q7 13 -16 27q-67 49 -106 87q4 22 10 46q94 4 114 -13q4 -4 6 -42q4 -75 2 -192q0 -28 5 -38q7 -10 16 -10q10 -1 19 12q7 9 9 32q3 100 -2 159q-1 31 2 64q6 34 -14 56q-10 13 -45 17q-64 -1 -106 -1q1 31 2 56q-1 19 -1 39v12q15 1 28 0q43 -1 84 -12
q43 -10 68 12q18 18 16 32q-3 22 -79 17q-34 -1 -148 -4q-130 -1 -177 3q-37 4 -58 -18q-13 -18 -11 -32q4 -22 38 -13q22 7 57 9q72 4 126 5q1 -1 2 -4q4 -16 6 -35q1 -37 2 -67q-45 1 -93 1q-46 -1 -57 -11q-13 -9 -12 -38q1 -16 -1 -49q-1 -28 -5 -189q0 -31 7 -41
t17 -10q12 0 23 23q6 12 5 39q-1 70 3 165q1 40 5 48q7 13 105 17q-1 -9 -2 -17q-10 -42 -35 -74q-28 -37 -55 -54q-19 -13 -9 -27q7 -10 26 -16q15 -4 32 10q39 43 61 90q1 4 4 10zM392 387q7 -82 0 -262q-3 -67 6 -97q4 -19 18 -29q22 -12 45 -1q67 24 171 28
q151 -1 247 -26q30 -10 45 -5q15 7 24 25q18 25 12 40q-4 7 -36 11q-28 1 -244 0q-139 -1 -176 -5q-16 -3 -33 0q-13 1 -25 35q-6 63 4 286q1 22 -8 35q-7 10 -22 11q-13 -1 -20 -10q-10 -10 -8 -36v0z" />
    <glyph glyph-name="uni96C0" unicode="&#x96c0;" 
d="M342 596q-6 28 -31 33q-22 4 -38 -20q-15 -25 22 -68q30 -25 50 -51q7 -16 20 -15q12 1 9 19q-4 24 -23 68q-7 19 -9 34zM699 5q61 -6 97 -15q39 -10 79 -31q25 -12 45 6q13 12 29 37q10 16 -10 18q-136 24 -231 30q-31 3 -64 2v2q-1 13 -3 59q85 -1 129 -12q24 -6 40 5
q12 9 17 25q3 13 -6 19q-10 6 -36 6q-61 0 -145 -2v28q-1 19 -1 34q85 -1 127 -11q24 -6 40 5q12 9 17 25q3 13 -6 19q-10 6 -36 6q-61 0 -142 -2q1 36 5 52q1 6 1 10q81 -1 121 -11q24 -6 40 5q12 9 17 25q3 13 -6 19q-10 6 -36 6q-63 0 -146 -2q0 1 1 2q13 22 17 41
q1 39 -24 49q-30 10 -44 -5q-6 -10 9 -43q10 -18 11 -42q-1 -1 -1 -2q-22 1 -46 0q-102 -1 -140 -1q-7 1 -12 -2q13 9 31 18q202 126 267 178q9 10 16 14q16 -13 37 -29q25 -27 36 -26q15 1 11 17q-4 15 -21 33q-46 66 -52 79q-12 22 -40 19q-24 -4 -35 -22q-9 -16 13 -32
q4 -3 9 -7q-1 0 -3 -3q-25 -31 -130 -99v10q0 25 2 76q1 16 4 29q7 31 -7 56q-15 19 -39 15q-22 -6 -20 -40q4 -30 5 -54q1 -27 2 -60q-4 -43 2 -64q-108 -64 -189 -99q-141 -58 -194 -67q-33 -7 -43 -18q-7 -9 5 -30q10 -16 25 -20q19 -6 54 7q85 30 194 86q0 -3 1 -8
q1 -28 3 -134q0 -94 -3 -182q-4 -40 7 -53q21 -22 35 -6q10 10 13 31q10 0 24 6q19 7 50 17q31 7 92 12q64 4 131 -4zM519 49q-73 -7 -96 -4q-12 1 -21 -3v60q73 13 186 12q-1 -39 -3 -55q-1 -3 -2 -7q-31 1 -64 -3zM402 205q72 13 186 12q0 -16 1 -35v-28q-16 1 -32 0
q-103 -1 -143 -1q-7 1 -12 -2v54zM407 309v1q69 13 176 11q-1 -4 1 -13q1 -13 3 -50q-15 1 -29 0q-102 -1 -140 -1q-7 1 -14 -2q0 28 3 54v0z" />
    <glyph glyph-name="uni9E3F" unicode="&#x9e3f;" 
d="M137 548q46 -12 63 -22q15 -9 29 -8q10 0 13 12q1 16 -17 30q-24 16 -44 39q-22 28 -57 12q-31 -16 -29 -38q4 -18 42 -25zM99 329q40 -4 57 -12q16 -7 30 -5q10 1 11 14q0 16 -20 28q-22 13 -41 31q-25 25 -59 5q-30 -19 -24 -41q7 -16 46 -20zM211 137
q-60 -42 -109 -69q-22 -7 -27 -19q-6 -16 7 -37q19 -28 35 -25q16 4 37 31q42 52 81 92q16 21 9 31q-10 10 -33 -4zM398 268q-1 10 -2 62q-1 46 2 62v3q22 1 46 0q30 1 41 13q7 9 -2 18q-13 12 -37 11q-79 -1 -100 1q-25 4 -37 7q-24 7 -38 4q-13 -3 -31 -19
q-16 -16 -13 -27q4 -12 26 -12q40 3 88 2q0 -1 1 -3q1 -12 2 -59q1 -46 -2 -58l-2 -8q-19 -1 -34 0q-39 4 -73 -21q-28 -22 -19 -39q10 -15 37 -8q49 10 90 20q36 7 91 9q34 0 53 13q13 10 6 21q-4 7 -27 8q-33 3 -66 0zM683 573q13 21 20 39q9 34 -12 48q-25 15 -40 4
q-7 -9 0 -40q6 -24 -1 -51h-13q-55 1 -86 -12q-19 -10 -23 -30q-7 -46 -4 -100q1 -54 11 -97q6 -37 3 -60q-4 -21 -16 -32q-12 -10 -9 -25t14 -19q9 -3 18 0q49 22 87 30q70 13 133 10q70 -1 93 -17q42 -16 48 -60q7 -61 -6 -109q-9 -40 -53 -92q-7 -10 14 -12q18 0 35 13
q31 28 47 67q10 22 14 66q4 43 17 85q4 12 3 18q-1 22 -34 48q-34 27 -108 32q-69 9 -167 1q-48 -3 -64 -1q-9 0 -13 3t-11 28q-7 57 -7 97q-1 57 6 88q4 16 15 26q10 7 36 10q49 4 100 -6q22 -3 30 -11q10 -9 11 -36q-1 -42 -15 -77q-10 -31 -27 -42q-7 -4 -3 -13
q1 -7 15 -6q27 1 42 16q15 12 23 43q9 33 25 60q10 16 11 28q1 21 -32 53q-22 22 -61 31q-22 6 -42 5q-13 0 -24 -1zM692 405q-1 30 0 53q1 18 -5 25q-10 9 -27 7q-25 -4 -29 -16q-1 -12 10 -35q15 -22 25 -41q9 -19 19 -17q10 4 7 24zM769 66q31 -6 47 4q28 19 31 33
q1 13 -32 13q-139 1 -193 -3q-39 1 -80 0q-28 -1 -39 4q-30 3 -62 -3q-28 -7 -40 -27q-10 -19 1 -34q10 -13 60 0q48 13 142 16q106 4 165 -3v0z" />
    <glyph glyph-name="uni9E44" unicode="&#x9e44;" 
d="M296 314q1 12 1 27q-1 31 -1 81q37 1 84 -1q28 0 33 13q4 13 -3 22q-13 10 -56 10h-58q0 12 1 24q1 30 6 56q7 31 -8 56q-13 19 -38 15q-22 -6 -20 -39q6 -57 7 -103v-9q-22 1 -46 2q-21 1 -35 -3q1 7 2 13q3 22 7 41q3 10 -5 22q-7 12 -24 19q-21 10 -32 4
q-13 -7 -6 -27q16 -33 16 -72q-3 -34 -17 -78q-9 -31 1 -37q9 -4 20 6q12 13 22 42q1 9 5 17q13 -1 29 2q24 4 63 4v-59q-4 -28 -1 -49q-79 0 -139 -6q-37 -4 -47 -16q-15 -16 -1 -32q13 -15 50 -4q22 4 57 10q34 4 86 6q63 0 99 -3q37 -3 83 -13q13 -3 24 5q13 7 15 18
q4 16 0 22q-7 9 -27 10q-82 4 -147 4zM144 196q-34 -1 -44 -16q-7 -10 2 -34q6 -16 28 -109q7 -33 21 -42q10 -7 28 1q16 7 58 8q39 1 63 -5t40 1q16 9 27 36q12 27 18 57q6 27 14 42q10 22 4 33q-6 10 -23 20q-22 12 -90 13q-58 0 -111 -3q-16 -1 -35 -2zM177 45
q-6 4 -9 18q-10 37 -12 66q0 12 3 18q4 4 21 8q28 4 111 5q34 0 45 -6q7 -7 7 -21q-1 -31 -15 -71q-3 -9 -9 -12q-6 -4 -35 -3q-34 1 -80 -2q-22 -1 -27 0zM671 575q16 28 22 50q7 34 -13 48q-25 13 -41 1q-7 -7 2 -40q7 -27 0 -59q-1 -1 -1 -2q-12 1 -23 0q-57 1 -88 -12
q-21 -10 -24 -30q-6 -43 -4 -95q1 -49 10 -91q4 -34 2 -56q-4 -21 -17 -33q-12 -10 -9 -25q3 -16 14 -20q9 -3 18 0q51 21 89 29q76 10 143 4q76 -6 99 -23q40 -19 42 -65q3 -64 -14 -110q-13 -40 -61 -90q-9 -10 13 -13q19 -1 39 11q34 27 53 64q13 22 21 67q6 43 24 85
q4 12 5 18q-1 22 -34 52q-34 28 -111 37q-73 13 -179 10q-51 -1 -68 2q-9 1 -14 5q-3 3 -8 31q-6 51 -5 87q1 49 7 78q4 18 14 27q10 7 36 12q51 6 104 -2q22 -4 31 -12q9 -10 10 -39q-1 -37 -13 -69q-10 -28 -24 -37q-7 -4 -3 -14q3 -7 17 -6q28 1 44 18q13 12 21 40
q7 30 24 55q9 15 10 25q-1 22 -34 54q-25 24 -64 31q-24 4 -43 3q-10 0 -19 -1zM678 403q-7 34 -9 61q0 19 -8 26q-10 7 -30 4q-25 -7 -28 -20q0 -13 15 -36q19 -24 33 -46q12 -19 22 -15t5 26zM761 78q31 -6 47 4q28 19 31 33q1 13 -32 13q-123 1 -171 -3q-34 1 -70 0
q-25 -1 -35 4q-30 3 -62 -3q-28 -7 -40 -27q-10 -19 1 -34q10 -13 60 0q42 10 125 15q94 4 146 -2v0z" />
    <glyph glyph-name="uniFF01" unicode="&#xff01;" 
d="M438 174l-18 220q-6 63 -12 121t4 121q17 36 44 30t34 -42q3 -117 -8.5 -223t-17.5 -227h-26zM410 80q11 10 21 12t23 0q57 -10 54.5 -59t-58.5 -57q-42 5 -53.5 38.5t13.5 65.5v0z" />
    <glyph glyph-name="uniFF0C" unicode="&#xff0c;" 
d="M136 -20q-85 15 -55.5 67.5t107.5 0.5q42 -64 17 -126t-103 -106q-14 -4 -20.5 2t4.5 18q46 31 69 78t-5 74z" />
    <glyph glyph-name="uniFF1B" unicode="&#xff1b;" 
d="M92 452q8 6 17 7.5t19 0.5q57 -11 55.5 -59.5t-59.5 -58.5q-44 7 -55 42.5t23 67.5v0zM126 -22q-9 1 -16.5 1t-15.5 3q-53 61 -1.5 86.5t101.5 -40.5q24 -59 0.5 -115t-96.5 -97q-14 -4 -20.5 2t4.5 18q36 27 56 56t24 62q0 18 -9 29.5t-27 -5.5v0z" />
  </font>
</defs>
</svg>
